<svg width="30" height="30" viewBox="0 0 30 30" fill="none" xmlns="http://www.w3.org/2000/svg">
<circle cx="15" cy="15" r="15" fill="url(#paint0_linear_32_374)"/>
<path d="M16.803 20.4596C17.0569 20.5684 17.3508 20.4508 17.4596 20.197L19.2322 16.0608C19.341 15.807 19.2234 15.5131 18.9696 15.4043C18.7158 15.2955 18.4218 15.4131 18.3131 15.6669L16.7374 19.3435L13.0608 17.7678C12.807 17.659 12.5131 17.7766 12.4043 18.0304C12.2955 18.2842 12.4131 18.5782 12.6669 18.6869L16.803 20.4596ZM12.5358 10.1857L16.5358 20.1857L17.4642 19.8143L13.4642 9.8143L12.5358 10.1857Z" fill="#F8F3EF"/>
<defs>
<linearGradient id="paint0_linear_32_374" x1="-1.34581e-07" y1="15.3333" x2="30.004" y2="15.3947" gradientUnits="userSpaceOnUse">
<stop stop-color="#E2AE80"/>
<stop offset="1" stop-color="#CC9872"/>
</linearGradient>
</defs>
</svg>
