<svg width="50" height="50" viewBox="0 0 50 50" fill="none" xmlns="http://www.w3.org/2000/svg">
<circle cx="25" cy="25" r="25" transform="rotate(-180 25 25)" fill="url(#paint0_linear_42_275)"/>
<path d="M33.7071 24.7071C34.0976 24.3166 34.0976 23.6834 33.7071 23.2929L27.3431 16.9289C26.9526 16.5384 26.3195 16.5384 25.9289 16.9289C25.5384 17.3195 25.5384 17.9526 25.9289 18.3431L31.5858 24L25.9289 29.6569C25.5384 30.0474 25.5384 30.6805 25.9289 31.0711C26.3195 31.4616 26.9526 31.4616 27.3431 31.0711L33.7071 24.7071ZM15 25L33 25L33 23L15 23L15 25Z" fill="white"/>
<defs>
<linearGradient id="paint0_linear_42_275" x1="1.68305e-06" y1="25.5556" x2="50.0066" y2="25.6578" gradientUnits="userSpaceOnUse">
<stop stop-color="#E2AE80"/>
<stop offset="1" stop-color="#CC9872"/>
</linearGradient>
</defs>
</svg>
