<svg width="50" height="50" viewBox="0 0 50 50" fill="none" xmlns="http://www.w3.org/2000/svg">
<circle cx="25" cy="25" r="25" fill="url(#paint0_linear_42_276)"/>
<path d="M16.2929 25.2929C15.9024 25.6834 15.9024 26.3166 16.2929 26.7071L22.6569 33.0711C23.0474 33.4616 23.6805 33.4616 24.0711 33.0711C24.4616 32.6805 24.4616 32.0474 24.0711 31.6569L18.4142 26L24.0711 20.3431C24.4616 19.9526 24.4616 19.3195 24.0711 18.9289C23.6805 18.5384 23.0474 18.5384 22.6569 18.9289L16.2929 25.2929ZM35 25L17 25L17 27L35 27L35 25Z" fill="white"/>
<defs>
<linearGradient id="paint0_linear_42_276" x1="-2.24302e-07" y1="25.5556" x2="50.0066" y2="25.6578" gradientUnits="userSpaceOnUse">
<stop stop-color="#E2AE80"/>
<stop offset="1" stop-color="#CC9872"/>
</linearGradient>
</defs>
</svg>
