<svg width="36" height="36" viewBox="0 0 36 36" fill="none" xmlns="http://www.w3.org/2000/svg">
<path fill-rule="evenodd" clip-rule="evenodd" d="M0 0H35V2H0V0ZM9.03125 7H34.999V9H9.03125V7ZM35 14H0V16H35V14Z" fill="#C19D7A"/>
<path d="M1.18 33V26H1.79L4.99 31.46H4.67L7.84 26H8.45V33H7.74V27.11H7.91L4.99 32.11H4.64L1.7 27.11H1.89V33H1.18ZM11.4689 29.13H15.1689V29.76H11.4689V29.13ZM11.5489 32.36H15.7589V33H10.8089V26H15.6089V26.64H11.5489V32.36ZM22.5207 26H23.2507V33H22.5207V26ZM18.1407 33H17.4007V26H18.1407V33ZM22.5907 29.77H18.0607V29.12H22.5907V29.77ZM25.6136 33V26H26.3436V29.11H28.1536V29.78H26.3436V33H25.6136ZM31.2636 33.06C30.7636 33.06 30.3003 32.9733 29.8736 32.8C29.4536 32.62 29.0836 32.37 28.7636 32.05C28.4503 31.73 28.2069 31.3533 28.0336 30.92C27.8603 30.4867 27.7736 30.0133 27.7736 29.5C27.7736 28.9867 27.8603 28.5133 28.0336 28.08C28.2069 27.6467 28.4503 27.27 28.7636 26.95C29.0836 26.63 29.4536 26.3833 29.8736 26.21C30.3003 26.03 30.7636 25.94 31.2636 25.94C31.7636 25.94 32.2269 26.03 32.6536 26.21C33.0803 26.3833 33.4503 26.63 33.7636 26.95C34.0769 27.27 34.3203 27.6467 34.4936 28.08C34.6736 28.5133 34.7636 28.9867 34.7636 29.5C34.7636 30.0133 34.6736 30.4867 34.4936 30.92C34.3203 31.3533 34.0769 31.73 33.7636 32.05C33.4503 32.37 33.0803 32.62 32.6536 32.8C32.2269 32.9733 31.7636 33.06 31.2636 33.06ZM31.2636 32.4C31.6569 32.4 32.0203 32.33 32.3536 32.19C32.6936 32.0433 32.9869 31.84 33.2336 31.58C33.4803 31.32 33.6736 31.0167 33.8136 30.67C33.9536 30.3167 34.0236 29.9267 34.0236 29.5C34.0236 29.0733 33.9536 28.6867 33.8136 28.34C33.6736 27.9867 33.4803 27.68 33.2336 27.42C32.9869 27.16 32.6936 26.96 32.3536 26.82C32.0203 26.6733 31.6569 26.6 31.2636 26.6C30.8769 26.6 30.5136 26.6733 30.1736 26.82C29.8403 26.96 29.5503 27.16 29.3036 27.42C29.0569 27.68 28.8636 27.9867 28.7236 28.34C28.5836 28.6867 28.5136 29.0733 28.5136 29.5C28.5136 29.9267 28.5836 30.3167 28.7236 30.67C28.8636 31.0167 29.0569 31.32 29.3036 31.58C29.5503 31.84 29.8403 32.0433 30.1736 32.19C30.5136 32.33 30.8769 32.4 31.2636 32.4Z" fill="#C19D7A"/>
</svg>
