<svg width="14" height="14" viewBox="0 0 14 14" fill="none" xmlns="http://www.w3.org/2000/svg">
<path fill-rule="evenodd" clip-rule="evenodd" d="M11.9602 2.03451C10.6442 0.723242 8.89394 0.000770002 7.02931 0C3.18701 0 0.0600164 3.11199 0.0584676 6.93689C0.0579514 8.15953 0.378875 9.35312 0.988925 10.4052L0 14L3.6953 13.0353C4.71354 13.588 5.85988 13.8794 7.02642 13.8797H7.0294C10.8712 13.8797 13.9985 10.7675 14 6.9424C14.0008 5.08871 13.2764 3.34579 11.9602 2.03451ZM7.02931 12.7081H7.02686C5.98727 12.7077 4.96772 12.4296 4.07802 11.9044L3.86654 11.7794L1.6737 12.3519L2.25899 10.2241L2.12118 10.006C1.54123 9.08791 1.23489 8.02679 1.23541 6.93733C1.23664 3.75818 3.83582 1.17168 7.03159 1.17168C8.57911 1.1722 10.0339 1.77271 11.1277 2.86262C12.2216 3.95252 12.8236 5.40126 12.8231 6.94197C12.8217 10.1214 10.2228 12.7081 7.02931 12.7081ZM10.2073 8.38957C10.0332 8.30277 9.17682 7.88356 9.01714 7.82563C8.85762 7.76779 8.74134 7.73901 8.62531 7.91243C8.5092 8.08594 8.17539 8.47646 8.0738 8.59204C7.97213 8.70772 7.87062 8.72225 7.69641 8.63545C7.5222 8.54873 6.96106 8.3656 6.29571 7.77506C5.77797 7.31542 5.42841 6.7478 5.32674 6.57429C5.22524 6.40069 5.32586 6.3159 5.40321 6.22053C5.59169 5.98751 5.78051 5.74321 5.83861 5.62762C5.89671 5.51195 5.86757 5.41062 5.824 5.32391C5.78051 5.2372 5.43217 4.38398 5.2871 4.03678C5.14561 3.69894 5.00211 3.74453 4.8951 3.73928C4.79369 3.73421 4.67749 3.73324 4.56129 3.73324C4.44526 3.73324 4.25652 3.77656 4.09684 3.95016C3.93724 4.12367 3.48731 4.54297 3.48731 5.39618C3.48731 6.2494 4.11145 7.07365 4.19851 7.18942C4.28557 7.30509 5.42666 9.05597 7.17386 9.80672C7.5894 9.98549 7.91385 10.092 8.16681 10.1719C8.5841 10.3038 8.96368 10.2852 9.26389 10.2406C9.59858 10.1908 10.2943 9.82125 10.4395 9.41639C10.5847 9.01143 10.5847 8.66441 10.541 8.59204C10.4976 8.51977 10.3814 8.47646 10.2073 8.38957Z" fill="#99999D"/>
</svg>
