<svg width="16" height="16" viewBox="0 0 16 16" fill="none" xmlns="http://www.w3.org/2000/svg">
<path d="M12.8 2.1333H3.2C1.43574 2.1333 0 3.56901 0 5.3333V10.6666C0 12.4309 1.43574 13.8666 3.2 13.8666H12.8C14.5643 13.8666 16 12.4309 16 10.6666V5.3333C16 3.56901 14.5643 2.1333 12.8 2.1333ZM15.2889 10.6666C15.2889 12.0391 14.1724 13.1555 12.8 13.1555H3.2C1.82756 13.1555 0.711111 12.0391 0.711111 10.6666V5.3333C0.711111 3.96086 1.82756 2.84441 3.2 2.84441H12.8C14.1724 2.84441 15.2889 3.96086 15.2889 5.3333V10.6666ZM5.68889 11.0083L10.8996 8.00031L5.68889 4.9916V11.0083ZM6.4 6.22326L9.47733 8.00033L6.4 9.77667V6.22326Z" fill="#99999D"/>
</svg>
