<svg width="28" height="28" viewBox="0 0 28 28" fill="none" xmlns="http://www.w3.org/2000/svg">
<path d="M14.6598 14.041L22.2391 6.46171C22.4099 6.29087 22.4099 6.01387 22.2391 5.84303C22.0682 5.67219 21.7913 5.67219 21.6204 5.84303L14.0411 13.4223L6.46175 5.84298C6.29091 5.67213 6.01392 5.67213 5.84307 5.84298C5.67217 6.01382 5.67217 6.29081 5.84307 6.46166L13.4223 14.041L5.84302 21.6203C5.67212 21.7912 5.67212 22.0682 5.84302 22.2391C5.92844 22.3245 6.04038 22.3672 6.15238 22.3672C6.26438 22.3672 6.37633 22.3245 6.46175 22.2391L14.0411 14.6597L21.6204 22.2391C21.7058 22.3245 21.8177 22.3672 21.9297 22.3672C22.0417 22.3672 22.1537 22.3245 22.2391 22.2391C22.4099 22.0682 22.4099 21.7912 22.2391 21.6203L14.6598 14.041Z" fill="#C48F65"/>
</svg>
