<svg width="24" height="23" viewBox="0 0 24 23" fill="none" xmlns="http://www.w3.org/2000/svg">
<g clip-path="url(#clip0_1_3685)">
<path d="M23.6906 16.7896C23.6627 16.7295 23.6368 16.6798 23.6126 16.6399C23.2136 15.9212 22.451 15.039 21.3254 13.9932L21.3016 13.9692L21.2897 13.9575L21.2777 13.9454H21.2656C20.7547 13.4584 20.4312 13.131 20.2957 12.9633C20.0478 12.644 19.9923 12.3207 20.1278 11.9932C20.2235 11.7457 20.583 11.2231 21.2056 10.4246C21.533 10.0014 21.7923 9.66229 21.9839 9.40678C23.3651 7.57049 23.9639 6.39708 23.7802 5.88609L23.7089 5.76668C23.6609 5.69478 23.5372 5.62902 23.3378 5.56904C23.138 5.50918 22.8826 5.49929 22.5712 5.53917L19.1224 5.563C19.0666 5.5432 18.9868 5.54505 18.8829 5.56904C18.779 5.59303 18.7271 5.60507 18.7271 5.60507L18.6671 5.63506L18.6194 5.67109C18.5795 5.69491 18.5356 5.73681 18.4877 5.79671C18.44 5.85639 18.4001 5.92644 18.3682 6.00626C17.9927 6.97225 17.5658 7.87039 17.0867 8.70062C16.7913 9.19567 16.52 9.62471 16.2723 9.98799C16.0248 10.3511 15.8172 10.6187 15.6497 10.7902C15.482 10.9619 15.3305 11.0994 15.1946 11.2033C15.0588 11.3072 14.9551 11.3511 14.8834 11.3351C14.8114 11.319 14.7437 11.3031 14.6796 11.2871C14.5679 11.2152 14.478 11.1175 14.4103 10.9937C14.3423 10.87 14.2965 10.7143 14.2725 10.5267C14.2487 10.3389 14.2346 10.1774 14.2306 10.0417C14.2268 9.90607 14.2286 9.71426 14.2367 9.4668C14.245 9.2192 14.2487 9.05168 14.2487 8.96385C14.2487 8.66043 14.2546 8.33114 14.2665 7.97588C14.2786 7.62062 14.2883 7.33913 14.2965 7.13176C14.3046 6.92419 14.3084 6.70457 14.3084 6.47304C14.3084 6.24152 14.2943 6.05994 14.2665 5.92816C14.239 5.79654 14.1967 5.66878 14.1411 5.54492C14.0851 5.42119 14.0031 5.32547 13.8956 5.25752C13.7878 5.18966 13.6539 5.1358 13.4944 5.09579C13.0713 5.00003 12.5324 4.94823 11.8776 4.94018C10.3928 4.92424 9.43871 5.02012 9.01558 5.2277C8.84793 5.31541 8.69622 5.43524 8.56058 5.58682C8.41684 5.76252 8.39679 5.85841 8.50056 5.87418C8.97964 5.94594 9.31879 6.11762 9.5184 6.38903L9.59033 6.53286C9.64628 6.63662 9.70215 6.82034 9.75806 7.08374C9.81389 7.34714 9.84992 7.63853 9.86577 7.95771C9.90562 8.5406 9.90562 9.03956 9.86577 9.45463C9.8258 9.86987 9.78805 10.1931 9.75202 10.4247C9.71599 10.6562 9.66214 10.8438 9.59033 10.9875C9.5184 11.1312 9.47054 11.219 9.44655 11.2509C9.4226 11.2827 9.40264 11.3028 9.38678 11.3107C9.28301 11.3505 9.17509 11.3707 9.0634 11.3707C8.95153 11.3707 8.81589 11.3148 8.65625 11.203C8.49666 11.0911 8.33102 10.9375 8.15935 10.7419C7.98767 10.5463 7.79406 10.2728 7.57843 9.92159C7.36297 9.57035 7.13941 9.15524 6.90788 8.67625L6.71633 8.32887C6.59658 8.1054 6.433 7.78 6.22542 7.35297C6.01772 6.92578 5.83413 6.51255 5.67454 6.11338C5.61074 5.94573 5.5149 5.8181 5.38718 5.73027L5.32725 5.69424C5.2874 5.66236 5.22344 5.62851 5.13569 5.59244C5.04782 5.55641 4.95613 5.53058 4.86025 5.51468L1.57906 5.5385C1.24376 5.5385 1.01626 5.61446 0.896471 5.76617L0.848529 5.83794C0.82458 5.87791 0.8125 5.94175 0.8125 6.02962C0.8125 6.11745 0.83645 6.22524 0.884391 6.35288C1.36338 7.47864 1.88428 8.56434 2.44708 9.61016C3.00987 10.656 3.49893 11.4984 3.91396 12.1367C4.32908 12.7755 4.7522 13.3783 5.18334 13.945C5.61447 14.5118 5.89986 14.8751 6.03949 15.0347C6.17928 15.1946 6.28909 15.3141 6.36891 15.3939L6.66834 15.6813C6.85994 15.8729 7.1413 16.1025 7.51254 16.3698C7.88386 16.6374 8.29495 16.9008 8.74601 17.1605C9.19715 17.4197 9.72199 17.6313 10.3208 17.7949C10.9196 17.9587 11.5023 18.0244 12.0692 17.9927H13.4464C13.7257 17.9686 13.9373 17.8808 14.0811 17.7292L14.1287 17.6692C14.1608 17.6215 14.1908 17.5475 14.2185 17.4479C14.2465 17.3481 14.2604 17.2382 14.2604 17.1186C14.2522 16.7754 14.2783 16.466 14.3381 16.1906C14.3978 15.9153 14.4658 15.7077 14.5419 15.5679C14.6179 15.4283 14.7037 15.3104 14.7992 15.2148C14.895 15.1191 14.9632 15.0611 15.0032 15.0411C15.0429 15.021 15.0747 15.0074 15.0986 14.9992C15.2902 14.9354 15.5157 14.9972 15.7754 15.185C16.0349 15.3726 16.2783 15.6042 16.506 15.8796C16.7335 16.1551 17.0069 16.4643 17.3262 16.8075C17.6457 17.1509 17.925 17.4061 18.1644 17.574L18.4039 17.7177C18.5637 17.8136 18.7713 17.9014 19.0268 17.9812C19.2819 18.061 19.5054 18.081 19.6973 18.0411L22.7628 17.9933C23.066 17.9933 23.3019 17.9431 23.4693 17.8434C23.637 17.7437 23.7366 17.6337 23.7687 17.5141C23.8008 17.3944 23.8025 17.2586 23.7748 17.1068C23.7464 16.9553 23.7184 16.8494 23.6906 16.7896Z" fill="#222222"/>
</g>
<defs>
<clipPath id="clip0_1_3685">
<rect width="23" height="23" fill="white" transform="translate(0.8125)"/>
</clipPath>
</defs>
</svg>
