<svg width="31" height="30" viewBox="0 0 31 30" fill="none" xmlns="http://www.w3.org/2000/svg">
<circle cx="15.5" cy="15" r="15" fill="#2F6AC2"/>
<g clip-path="url(#clip0_1_257)">
<path d="M23.4152 19.6798C23.3958 19.638 23.3777 19.6034 23.361 19.5756C23.0834 19.0757 22.5529 18.462 21.7698 17.7345L21.7533 17.7178L21.745 17.7096L21.7366 17.7013H21.7282C21.3728 17.3625 21.1478 17.1347 21.0535 17.018C20.8811 16.7959 20.8425 16.571 20.9367 16.3432C21.0033 16.171 21.2534 15.8075 21.6865 15.252C21.9143 14.9576 22.0947 14.7217 22.2279 14.5439C23.1888 13.2665 23.6053 12.4502 23.4775 12.0948L23.4279 12.0117C23.3946 11.9617 23.3085 11.9159 23.1698 11.8742C23.0308 11.8326 22.8531 11.8257 22.6365 11.8534L20.2373 11.87C20.1985 11.8562 20.143 11.8575 20.0707 11.8742C19.9985 11.8909 19.9623 11.8993 19.9623 11.8993L19.9206 11.9201L19.8874 11.9452C19.8597 11.9618 19.8291 11.9909 19.7958 12.0326C19.7626 12.0741 19.7348 12.1228 19.7127 12.1783C19.4515 12.8503 19.1545 13.4751 18.8212 14.0527C18.6157 14.3971 18.427 14.6955 18.2546 14.9482C18.0825 15.2009 17.9381 15.387 17.8215 15.5063C17.7048 15.6257 17.5995 15.7214 17.5049 15.7937C17.4105 15.866 17.3384 15.8965 17.2884 15.8854C17.2384 15.8742 17.1913 15.8631 17.1467 15.852C17.069 15.802 17.0065 15.734 16.9593 15.6479C16.912 15.5618 16.8801 15.4535 16.8635 15.323C16.8469 15.1924 16.8371 15.08 16.8343 14.9856C16.8317 14.8913 16.8329 14.7578 16.8385 14.5857C16.8443 14.4134 16.8469 14.2969 16.8469 14.2358C16.8469 14.0247 16.851 13.7957 16.8593 13.5485C16.8677 13.3014 16.8745 13.1056 16.8802 12.9613C16.8858 12.8169 16.8885 12.6641 16.8885 12.5031C16.8885 12.342 16.8787 12.2157 16.8593 12.124C16.8401 12.0325 16.8108 11.9436 16.772 11.8574C16.7331 11.7713 16.6761 11.7048 16.6013 11.6575C16.5263 11.6103 16.4331 11.5728 16.3222 11.545C16.0278 11.4784 15.653 11.4423 15.1975 11.4367C14.1646 11.4256 13.5008 11.4923 13.2065 11.6367C13.0899 11.6978 12.9843 11.7811 12.89 11.8866C12.79 12.0088 12.776 12.0755 12.8482 12.0865C13.1815 12.1364 13.4174 12.2558 13.5563 12.4446L13.6063 12.5447C13.6452 12.6169 13.6841 12.7447 13.723 12.9279C13.7618 13.1111 13.7869 13.3138 13.7979 13.5359C13.8256 13.9414 13.8256 14.2885 13.7979 14.5772C13.7701 14.8661 13.7439 15.091 13.7188 15.252C13.6937 15.4131 13.6563 15.5436 13.6063 15.6435C13.5563 15.7435 13.523 15.8046 13.5063 15.8268C13.4896 15.8489 13.4757 15.8629 13.4647 15.8684C13.3925 15.8961 13.3175 15.9102 13.2398 15.9102C13.1619 15.9102 13.0676 15.8712 12.9565 15.7934C12.8455 15.7157 12.7303 15.6088 12.6109 15.4727C12.4914 15.3366 12.3567 15.1464 12.2067 14.9021C12.0568 14.6577 11.9013 14.3689 11.7403 14.0357L11.607 13.7941C11.5237 13.6386 11.4099 13.4123 11.2655 13.1152C11.121 12.818 10.9933 12.5306 10.8823 12.2529C10.8379 12.1362 10.7712 12.0475 10.6824 11.9864L10.6407 11.9613C10.613 11.9391 10.5685 11.9156 10.5074 11.8905C10.4463 11.8654 10.3825 11.8474 10.3158 11.8364L8.03326 11.853C7.80001 11.853 7.64175 11.9058 7.55841 12.0113L7.52506 12.0613C7.5084 12.0891 7.5 12.1335 7.5 12.1946C7.5 12.2557 7.51666 12.3307 7.55001 12.4195C7.88322 13.2026 8.24559 13.9579 8.6371 14.6854C9.02861 15.4129 9.36882 15.999 9.65754 16.443C9.94631 16.8874 10.2407 17.3067 10.5406 17.7009C10.8405 18.0953 11.039 18.348 11.1362 18.459C11.2334 18.5702 11.3098 18.6534 11.3653 18.7089L11.5736 18.9088C11.7069 19.0421 11.9026 19.2018 12.1609 19.3878C12.4192 19.5739 12.7052 19.7572 13.019 19.9378C13.3328 20.1182 13.6979 20.2653 14.1145 20.3792C14.531 20.4931 14.9364 20.5388 15.3307 20.5168H16.2888C16.4831 20.5 16.6303 20.4389 16.7303 20.3334L16.7635 20.2917C16.7858 20.2585 16.8066 20.207 16.8259 20.1377C16.8454 20.0683 16.8551 19.9918 16.8551 19.9087C16.8494 19.6699 16.8675 19.4547 16.9091 19.2631C16.9506 19.0716 16.9979 18.9272 17.0509 18.8299C17.1038 18.7328 17.1635 18.6508 17.2299 18.5843C17.2965 18.5177 17.3439 18.4774 17.3718 18.4635C17.3994 18.4495 17.4215 18.44 17.4382 18.4343C17.5715 18.3899 17.7283 18.4329 17.909 18.5636C18.0895 18.6941 18.2588 18.8552 18.4172 19.0467C18.5755 19.2384 18.7657 19.4535 18.9878 19.6923C19.21 19.9311 19.4044 20.1087 19.5709 20.2255L19.7375 20.3254C19.8487 20.3921 19.9931 20.4532 20.1708 20.5088C20.3483 20.5643 20.5037 20.5781 20.6372 20.5504L22.7698 20.5171C22.9807 20.5171 23.1448 20.4822 23.2612 20.4129C23.3779 20.3435 23.4472 20.267 23.4695 20.1838C23.4918 20.1006 23.493 20.0061 23.4738 19.9005C23.454 19.7951 23.4346 19.7214 23.4152 19.6798Z" fill="white"/>
</g>
<defs>
<clipPath id="clip0_1_257">
<rect width="16" height="16" fill="white" transform="translate(7.5 8)"/>
</clipPath>
</defs>
</svg>
