<svg width="31" height="30" viewBox="0 0 31 30" fill="none" xmlns="http://www.w3.org/2000/svg">
<g clip-path="url(#clip0_1_253)">
<path d="M15.5 30C23.7843 30 30.5 23.2843 30.5 15C30.5 6.71573 23.7843 0 15.5 0C7.21573 0 0.5 6.71573 0.5 15C0.5 23.2843 7.21573 30 15.5 30Z" fill="#25D366"/>
<path fill-rule="evenodd" clip-rule="evenodd" d="M21.1688 9.32516C19.6648 7.82656 17.6645 7.00088 15.5335 7C11.1423 7 7.56859 10.5566 7.56682 14.9279C7.56623 16.3252 7.933 17.6893 8.6302 18.8917L7.5 23L11.7232 21.8975C12.8869 22.5292 14.197 22.8622 15.5302 22.8625H15.5336C19.9242 22.8625 23.4983 19.3057 23.5 14.9342C23.5009 12.8157 22.673 10.8238 21.1688 9.32516ZM15.5335 21.5236H15.5307C14.3426 21.5231 13.1774 21.2053 12.1606 20.605L11.9189 20.4622L9.4128 21.1165L10.0817 18.6847L9.9242 18.4354C9.2614 17.3862 8.9113 16.1735 8.9119 14.9284C8.9133 11.2951 11.8838 8.33906 15.5361 8.33906C17.3047 8.33965 18.9673 9.02596 20.2174 10.2716C21.4675 11.5172 22.1556 13.1729 22.155 14.9337C22.1534 18.5673 19.1832 21.5236 15.5335 21.5236ZM19.1655 16.5881C18.9665 16.4889 17.9878 16.0098 17.8053 15.9436C17.623 15.8775 17.4901 15.8446 17.3575 16.0428C17.2248 16.2411 16.8433 16.6874 16.7272 16.8195C16.611 16.9517 16.495 16.9683 16.2959 16.8691C16.0968 16.77 15.4555 16.5607 14.6951 15.8858C14.1034 15.3605 13.7039 14.7118 13.5877 14.5135C13.4717 14.3151 13.5867 14.2182 13.6751 14.1092C13.8905 13.8429 14.1063 13.5637 14.1727 13.4316C14.2391 13.2994 14.2058 13.1836 14.156 13.0845C14.1063 12.9854 13.7082 12.0103 13.5424 11.6135C13.3807 11.2274 13.2167 11.2795 13.0944 11.2735C12.9785 11.2677 12.8457 11.2666 12.7129 11.2666C12.5803 11.2666 12.3646 11.3161 12.1821 11.5145C11.9997 11.7128 11.4855 12.192 11.4855 13.1671C11.4855 14.1422 12.1988 15.0842 12.2983 15.2165C12.3978 15.3487 13.7019 17.3497 15.6987 18.2077C16.1736 18.412 16.5444 18.5337 16.8335 18.625C17.3104 18.7758 17.7442 18.7545 18.0873 18.7036C18.4698 18.6466 19.2649 18.2243 19.4309 17.7616C19.5968 17.2988 19.5968 16.9022 19.5469 16.8195C19.4973 16.7369 19.3645 16.6874 19.1655 16.5881Z" fill="white"/>
</g>
<defs>
<clipPath id="clip0_1_253">
<rect width="30" height="30" fill="white" transform="translate(0.5)"/>
</clipPath>
</defs>
</svg>
