<svg width="21" height="21" viewBox="0 0 21 21" fill="none" xmlns="http://www.w3.org/2000/svg">
<path fill-rule="evenodd" clip-rule="evenodd" d="M17.1928 3.36211C15.301 1.47716 12.785 0.438607 10.1046 0.4375C4.58133 0.4375 0.0862735 4.91099 0.0840472 10.4093C0.0833051 12.1668 0.544632 13.8826 1.42158 15.395L0 20.5625L5.31199 19.1758C6.77571 19.9703 8.42357 20.3892 10.1005 20.3896H10.1048C15.6273 20.3896 20.1229 15.9157 20.125 10.4172C20.1261 7.75252 19.0848 5.24708 17.1928 3.36211ZM10.1046 18.7055H10.1011C8.60671 18.7048 7.1411 18.3051 5.86216 17.55L5.55815 17.3704L2.40594 18.1934L3.24729 15.1346L3.04919 14.8211C2.21551 13.5014 1.77515 11.976 1.7759 10.4099C1.77767 5.83988 5.514 2.12179 10.1079 2.12179C12.3325 2.12253 14.4237 2.98577 15.9961 4.55251C17.5685 6.11925 18.434 8.20181 18.4332 10.4166C18.4312 14.987 14.6953 18.7055 10.1046 18.7055ZM14.673 12.4975C14.4227 12.3727 13.1917 11.7701 12.9621 11.6868C12.7328 11.6037 12.5657 11.5623 12.3989 11.8116C12.232 12.061 11.7521 12.6224 11.6061 12.7886C11.4599 12.9548 11.314 12.9757 11.0636 12.851C10.8132 12.7263 10.0065 12.463 9.05009 11.6141C8.30584 10.9534 7.80334 10.1375 7.65719 9.88804C7.51128 9.63849 7.65593 9.51661 7.76712 9.37951C8.03805 9.04455 8.30949 8.69337 8.39301 8.52721C8.47652 8.36093 8.43464 8.21527 8.372 8.09062C8.30949 7.96597 7.80875 6.73947 7.60021 6.24037C7.39682 5.75473 7.19054 5.82026 7.03671 5.81272C6.89092 5.80542 6.72389 5.80404 6.55685 5.80404C6.39007 5.80404 6.11875 5.8663 5.8892 6.11585C5.65978 6.36527 5.01301 6.96802 5.01301 8.19452C5.01301 9.42101 5.91021 10.6059 6.03536 10.7723C6.16051 10.9386 7.80083 13.4555 10.3124 14.5347C10.9098 14.7916 11.3762 14.9447 11.7398 15.0596C12.3396 15.2492 12.8853 15.2224 13.3168 15.1584C13.798 15.0867 14.798 14.5555 15.0068 13.9736C15.2155 13.3914 15.2155 12.8926 15.1527 12.7886C15.0904 12.6847 14.9233 12.6224 14.673 12.4975Z" fill="#222222"/>
</svg>
