<svg width="31" height="30" viewBox="0 0 31 30" fill="none" xmlns="http://www.w3.org/2000/svg">
<circle cx="15.5" cy="15" r="15" fill="#EB2626"/>
<g clip-path="url(#clip0_54_330)">
<path fill-rule="evenodd" clip-rule="evenodd" d="M23.35 12.4793C23.35 12.4793 23.2033 11.4384 22.7538 10.98C22.1833 10.3782 21.5439 10.3754 21.2509 10.3404C19.1519 10.1875 16.0033 10.1875 16.0033 10.1875H15.9967C15.9967 10.1875 12.8481 10.1875 10.7491 10.3404C10.4556 10.3754 9.81672 10.3782 9.24578 10.98C8.79625 11.4385 8.65 12.4793 8.65 12.4793C8.65 12.4793 8.5 13.7021 8.5 14.9242V16.0704C8.5 17.293 8.65 18.5153 8.65 18.5153C8.65 18.5153 8.79625 19.5563 9.24578 20.0146C9.81672 20.6165 10.5662 20.5976 10.9 20.6604C12.1 20.7766 16 20.8124 16 20.8124C16 20.8124 19.1519 20.8077 21.2509 20.6548C21.5439 20.6194 22.1833 20.6166 22.7538 20.0147C23.2033 19.5563 23.35 18.5154 23.35 18.5154C23.35 18.5154 23.5 17.2932 23.5 16.0704V14.9242C23.5 13.7021 23.35 12.4793 23.35 12.4793ZM14.4513 17.4593L14.4508 13.2149L18.5036 15.3445L14.4513 17.4593Z" fill="white"/>
</g>
<defs>
<clipPath id="clip0_54_330">
<rect width="15" height="15" fill="white" transform="translate(8.5 8)"/>
</clipPath>
</defs>
</svg>
