<svg width="24" height="23" viewBox="0 0 24 23" fill="none" xmlns="http://www.w3.org/2000/svg">
<g clip-path="url(#clip0_1_3688)">
<path d="M18.9 3.06641H5.1C2.56387 3.06641 0.5 5.13024 0.5 7.66641V15.3331C0.5 17.8692 2.56387 19.9331 5.1 19.9331H18.9C21.4361 19.9331 23.5 17.8692 23.5 15.3331V7.66641C23.5 5.13024 21.4361 3.06641 18.9 3.06641ZM22.4778 15.3331C22.4778 17.306 20.8729 18.9108 18.9 18.9108H5.1C3.12711 18.9108 1.52222 17.306 1.52222 15.3331V7.66641C1.52222 5.69352 3.12711 4.08863 5.1 4.08863H18.9C20.8729 4.08863 22.4778 5.69352 22.4778 7.66641V15.3331ZM8.67778 15.8242L16.1681 11.5002L8.67778 7.17521V15.8242ZM9.7 8.94572L14.1237 11.5003L9.7 14.0538V8.94572Z" fill="#222222"/>
</g>
<defs>
<clipPath id="clip0_1_3688">
<rect width="23" height="23" fill="white" transform="translate(0.5)"/>
</clipPath>
</defs>
</svg>
